<svg xmlns="http://www.w3.org/2000/svg" width="700" height="300" font-family="Segoe UI, Arial, sans-serif">
<rect width="700" height="300" fill="#F5F8FC" rx="8"/>
<text x="350" y="30" text-anchor="middle" font-size="15" font-weight="bold" fill="#2C3E50">BERT Encoder Layer Breakdown — Single GPU (2,691 ms total)</text>
<rect x="30" y="70" width="3.5434007134363847" height="50" fill="#5B9BD5" stroke="white" stroke-width="1"/>
<rect x="33.543400713436384" y="70" width="0.8561236623067776" height="50" fill="#8FAECC" stroke="white" stroke-width="1"/>
<rect x="34.39952437574316" y="70" width="7.348394768133174" height="50" fill="#A2BECF" stroke="white" stroke-width="1"/>
<rect x="41.74791914387634" y="70" width="2.877526753864447" height="50" fill="#5B9BD5" stroke="white" stroke-width="1"/>
<rect x="44.62544589774078" y="70" width="23.971462544589773" height="50" fill="#B0C4DE" stroke="white" stroke-width="1"/>
<rect x="68.59690844233056" y="70" width="29.250891795481564" height="50" fill="#C1D5E4" stroke="white" stroke-width="1"/>
<rect x="97.84780023781212" y="70" width="572.1521997621878" height="50" fill="#4682B4" stroke="white" stroke-width="1"/>
<text x="383.92390011890603" y="99.0" text-anchor="middle" font-size="10" fill="white" font-weight="bold">2406ms</text>
<text x="383.9239001189061" y="140" text-anchor="middle" font-size="13" font-weight="bold" fill="#36648B">Bootstrap: 89.4%</text>
<text x="63.92390011890608" y="140" text-anchor="middle" font-size="12" fill="#2C3E50">Compute: 10.6%</text>
<rect x="30" y="165" width="12" height="12" fill="#5B9BD5" rx="2"/>
<text x="46" y="175" font-size="11" fill="#2C3E50">MatMul QKV (15 ms)</text>
<rect x="200" y="165" width="12" height="12" fill="#8FAECC" rx="2"/>
<text x="216" y="175" font-size="11" fill="#2C3E50">QK^T + Attn*V (4 ms)</text>
<rect x="370" y="165" width="12" height="12" fill="#A2BECF" rx="2"/>
<text x="386" y="175" font-size="11" fill="#2C3E50">Softmax (31 ms)</text>
<rect x="540" y="165" width="12" height="12" fill="#5B9BD5" rx="2"/>
<text x="556" y="175" font-size="11" fill="#2C3E50">MatMul Out+FFN (12 ms)</text>
<rect x="30" y="187" width="12" height="12" fill="#B0C4DE" rx="2"/>
<text x="46" y="197" font-size="11" fill="#2C3E50">GELU (101 ms)</text>
<rect x="200" y="187" width="12" height="12" fill="#C1D5E4" rx="2"/>
<text x="216" y="197" font-size="11" fill="#2C3E50">LayerNorm x2 (123 ms)</text>
<rect x="370" y="187" width="12" height="12" fill="#4682B4" rx="2"/>
<text x="386" y="197" font-size="11" fill="#2C3E50">Bootstrap x4 (2406 ms)</text>
</svg>