<svg xmlns="http://www.w3.org/2000/svg" width="500" height="280" font-family="Segoe UI, Arial, sans-serif">
<rect width="500" height="280" fill="#F5F8FC" rx="8"/>
<text x="250" y="28" text-anchor="middle" font-size="15" font-weight="bold" fill="#2C3E50">Bootstrap Phase Breakdown (259 ms / ciphertext)</text>
<rect x="30" y="55" width="197.06563706563708" height="40" fill="#4682B4" rx="3"/>
<text x="128.53281853281854" y="79.0" text-anchor="middle" font-size="10" fill="white" font-weight="bold">116ms</text>
<rect x="227.06563706563708" y="55" width="156.2934362934363" height="40" fill="#5B9BD5" rx="3"/>
<text x="305.2123552123552" y="79.0" text-anchor="middle" font-size="10" fill="white" font-weight="bold">92ms</text>
<rect x="383.35907335907336" y="55" width="81.54440154440154" height="40" fill="#B0C4DE" rx="3"/>
<text x="424.13127413127415" y="79.0" text-anchor="middle" font-size="10" fill="white" font-weight="bold">48ms</text>
<rect x="464.9034749034749" y="55" width="5.096525096525096" height="40" fill="#C1D5E4" rx="3"/>
<rect x="30" y="125" width="14" height="14" fill="#4682B4" rx="2"/>
<text x="50" y="137" font-size="12" font-weight="bold" fill="#2C3E50">Coeff-to-Slot (LT)</text>
<text x="250" y="137" font-size="12" fill="#36648B">116ms — 44.8%</text>
<text x="350" y="137" font-size="10" fill="#666">3x BSGS rotation + multiply</text>
<rect x="30" y="163" width="14" height="14" fill="#5B9BD5" rx="2"/>
<text x="50" y="175" font-size="12" font-weight="bold" fill="#2C3E50">Modular Reduction</text>
<text x="250" y="175" font-size="12" fill="#36648B">92ms — 35.5%</text>
<text x="350" y="175" font-size="10" fill="#666">Degree-59 Chebyshev polynomial</text>
<rect x="30" y="201" width="14" height="14" fill="#B0C4DE" rx="2"/>
<text x="50" y="213" font-size="12" font-weight="bold" fill="#2C3E50">Slot-to-Coeff (LT)</text>
<text x="250" y="213" font-size="12" fill="#36648B">48ms — 18.5%</text>
<text x="350" y="213" font-size="10" fill="#666">3x BSGS rotation (reverse)</text>
<rect x="30" y="239" width="14" height="14" fill="#C1D5E4" rx="2"/>
<text x="50" y="251" font-size="12" font-weight="bold" fill="#2C3E50">ModRaise + Subsum</text>
<text x="250" y="251" font-size="12" fill="#36648B">3ms — 1.2%</text>
<text x="350" y="251" font-size="10" fill="#666">Expand moduli + rotate-add</text>
</svg>