<svg xmlns="http://www.w3.org/2000/svg" width="550" height="350" font-family="Segoe UI, Arial, sans-serif">
<rect width="550" height="350" fill="#F5F8FC" rx="8"/>
<text x="275" y="30" text-anchor="middle" font-size="15" font-weight="bold" fill="#2C3E50">Multi-Node Scaling: 12 BERT-base Heads (H100)</text>
<line x1="90" y1="280.0" x2="520" y2="280.0" stroke="#DCE6F0" stroke-width="1"/>
<text x="82" y="284.0" text-anchor="end" font-size="11" fill="#2C3E50">0</text>
<line x1="90" y1="260.8333333333333" x2="520" y2="260.8333333333333" stroke="#DCE6F0" stroke-width="1"/>
<text x="82" y="264.8333333333333" text-anchor="end" font-size="11" fill="#2C3E50">1000</text>
<line x1="90" y1="241.66666666666669" x2="520" y2="241.66666666666669" stroke="#DCE6F0" stroke-width="1"/>
<text x="82" y="245.66666666666669" text-anchor="end" font-size="11" fill="#2C3E50">2000</text>
<line x1="90" y1="222.5" x2="520" y2="222.5" stroke="#DCE6F0" stroke-width="1"/>
<text x="82" y="226.5" text-anchor="end" font-size="11" fill="#2C3E50">3000</text>
<line x1="90" y1="203.33333333333334" x2="520" y2="203.33333333333334" stroke="#DCE6F0" stroke-width="1"/>
<text x="82" y="207.33333333333334" text-anchor="end" font-size="11" fill="#2C3E50">4000</text>
<line x1="90" y1="184.16666666666666" x2="520" y2="184.16666666666666" stroke="#DCE6F0" stroke-width="1"/>
<text x="82" y="188.16666666666666" text-anchor="end" font-size="11" fill="#2C3E50">5000</text>
<line x1="90" y1="165.0" x2="520" y2="165.0" stroke="#DCE6F0" stroke-width="1"/>
<text x="82" y="169.0" text-anchor="end" font-size="11" fill="#2C3E50">6000</text>
<text x="35" y="165" text-anchor="middle" font-size="12" fill="#2C3E50" transform="rotate(-90,35,165)">Time (ms)</text>
<rect x="145.0" y="123.715" width="70" height="156.285" fill="#4682B4" rx="3"/>
<text x="180.0" y="205.85750000000002" text-anchor="middle" font-size="11" fill="white" font-weight="bold">8154ms</text>
<text x="180.0" y="113.3575" text-anchor="middle" font-size="11" font-weight="bold" fill="#2C3E50">8277ms</text>
<text x="180.0" y="298" text-anchor="middle" font-size="11" fill="#2C3E50">1 Node</text>
<text x="180.0" y="312" text-anchor="middle" font-size="11" fill="#2C3E50">4 GPUs</text>
<rect x="270.0" y="175.695" width="70" height="104.305" fill="#4682B4" rx="3"/>
<text x="305.0" y="231.8475" text-anchor="middle" font-size="11" fill="white" font-weight="bold">5442ms</text>
<rect x="270.0" y="170.635" width="70" height="5.06" fill="#5B9BD5" rx="3"/>
<text x="305.0" y="159.9325" text-anchor="middle" font-size="11" font-weight="bold" fill="#2C3E50">5847ms</text>
<text x="305.0" y="298" text-anchor="middle" font-size="11" fill="#2C3E50">2 Nodes</text>
<text x="305.0" y="312" text-anchor="middle" font-size="11" fill="#2C3E50">8 GPUs</text>
<rect x="395.0" y="120.035" width="70" height="159.965" fill="#4682B4" rx="3"/>
<text x="430.0" y="204.01749999999998" text-anchor="middle" font-size="11" fill="white" font-weight="bold">8346ms</text>
<rect x="395.0" y="101.32833333333333" width="70" height="18.706666666666663" fill="#5B9BD5" rx="3"/>
<text x="430.0" y="114.68166666666667" text-anchor="middle" font-size="9" fill="white">976ms</text>
<rect x="395.0" y="94.17916666666666" width="70" height="7.149166666666667" fill="#B0C4DE" rx="3"/>
<text x="430.0" y="86.17916666666666" text-anchor="middle" font-size="11" font-weight="bold" fill="#2C3E50">9695ms</text>
<text x="430.0" y="298" text-anchor="middle" font-size="11" fill="#2C3E50">4 Nodes</text>
<text x="430.0" y="312" text-anchor="middle" font-size="11" fill="#2C3E50">16 GPUs</text>
<text x="430.0" y="326" text-anchor="middle" font-size="11" fill="#2C3E50">(weak:48h)</text>
<rect x="90" y="328" width="12" height="12" fill="#4682B4" rx="2"/>
<text x="106" y="338" font-size="11" fill="#2C3E50">Compute</text>
<rect x="220" y="328" width="12" height="12" fill="#5B9BD5" rx="2"/>
<text x="236" y="338" font-size="11" fill="#2C3E50">Scatter</text>
<rect x="350" y="328" width="12" height="12" fill="#B0C4DE" rx="2"/>
<text x="366" y="338" font-size="11" fill="#2C3E50">Gather</text>
<line x1="90" y1="280" x2="520" y2="280" stroke="#2C3E50" stroke-width="1.5"/>
<line x1="90" y1="50" x2="90" y2="280" stroke="#2C3E50" stroke-width="1.5"/>
</svg>