<svg xmlns="http://www.w3.org/2000/svg" width="550" height="350" font-family="Segoe UI, Arial, sans-serif">
<rect width="550" height="350" fill="#F5F8FC" rx="8"/>
<text x="275" y="30" text-anchor="middle" font-size="15" font-weight="bold" fill="#2C3E50">Multi-Node Scaling: 12 BERT-base Heads (H100)</text>
<line x1="90" y1="280.0" x2="520" y2="280.0" stroke="#DCE6F0" stroke-width="1"/>
<text x="82" y="284.0" text-anchor="end" font-size="11" fill="#2C3E50">0</text>
<line x1="90" y1="241.66666666666669" x2="520" y2="241.66666666666669" stroke="#DCE6F0" stroke-width="1"/>
<text x="82" y="245.66666666666669" text-anchor="end" font-size="11" fill="#2C3E50">1000</text>
<line x1="90" y1="203.33333333333334" x2="520" y2="203.33333333333334" stroke="#DCE6F0" stroke-width="1"/>
<text x="82" y="207.33333333333334" text-anchor="end" font-size="11" fill="#2C3E50">2000</text>
<line x1="90" y1="165.0" x2="520" y2="165.0" stroke="#DCE6F0" stroke-width="1"/>
<text x="82" y="169.0" text-anchor="end" font-size="11" fill="#2C3E50">3000</text>
<line x1="90" y1="126.66666666666669" x2="520" y2="126.66666666666669" stroke="#DCE6F0" stroke-width="1"/>
<text x="82" y="130.66666666666669" text-anchor="end" font-size="11" fill="#2C3E50">4000</text>
<line x1="90" y1="88.33333333333331" x2="520" y2="88.33333333333331" stroke="#DCE6F0" stroke-width="1"/>
<text x="82" y="92.33333333333331" text-anchor="end" font-size="11" fill="#2C3E50">5000</text>
<line x1="90" y1="50.0" x2="520" y2="50.0" stroke="#DCE6F0" stroke-width="1"/>
<text x="82" y="54.0" text-anchor="end" font-size="11" fill="#2C3E50">6000</text>
<text x="35" y="165" text-anchor="middle" font-size="12" fill="#2C3E50" transform="rotate(-90,35,165)">Time (ms)</text>
<rect x="173.33333333333331" y="100.17833333333331" width="90" height="179.8216666666667" fill="#4682B4" rx="3"/>
<text x="218.33333333333331" y="194.08916666666664" text-anchor="middle" font-size="11" fill="white" font-weight="bold">4691ms</text>
<text x="218.33333333333331" y="87.30999999999997" text-anchor="middle" font-size="11" font-weight="bold" fill="#2C3E50">4818ms</text>
<text x="218.33333333333331" y="298" text-anchor="middle" font-size="11" fill="#2C3E50">1 Node</text>
<text x="218.33333333333331" y="312" text-anchor="middle" font-size="11" fill="#2C3E50">4 GPUs</text>
<rect x="346.66666666666663" y="160.36166666666668" width="90" height="119.63833333333334" fill="#4682B4" rx="3"/>
<text x="391.66666666666663" y="224.18083333333334" text-anchor="middle" font-size="11" fill="white" font-weight="bold">3121ms</text>
<rect x="346.66666666666663" y="149.78166666666667" width="90" height="10.58" fill="#5B9BD5" rx="3"/>
<rect x="346.66666666666663" y="144.26166666666666" width="90" height="5.5200000000000005" fill="#B0C4DE" rx="3"/>
<text x="391.66666666666663" y="136.26166666666666" text-anchor="middle" font-size="11" font-weight="bold" fill="#2C3E50">3541ms</text>
<text x="391.66666666666663" y="298" text-anchor="middle" font-size="11" fill="#2C3E50">2 Nodes</text>
<text x="391.66666666666663" y="312" text-anchor="middle" font-size="11" fill="#2C3E50">8 GPUs</text>
<rect x="90" y="328" width="12" height="12" fill="#4682B4" rx="2"/>
<text x="106" y="338" font-size="11" fill="#2C3E50">Compute</text>
<rect x="220" y="328" width="12" height="12" fill="#5B9BD5" rx="2"/>
<text x="236" y="338" font-size="11" fill="#2C3E50">Scatter</text>
<rect x="350" y="328" width="12" height="12" fill="#B0C4DE" rx="2"/>
<text x="366" y="338" font-size="11" fill="#2C3E50">Gather</text>
<line x1="90" y1="280" x2="520" y2="280" stroke="#2C3E50" stroke-width="1.5"/>
<line x1="90" y1="50" x2="90" y2="280" stroke="#2C3E50" stroke-width="1.5"/>
</svg>