<svg xmlns="http://www.w3.org/2000/svg" width="650" height="320" font-family="Segoe UI, Arial, sans-serif">
<rect width="650" height="320" fill="#F5F8FC" rx="8"/>
<text x="325" y="30" text-anchor="middle" font-size="15" font-weight="bold" fill="#2C3E50">Nsight GPU Kernel Breakdown — 1-GPU BERT Layer</text>
<rect x="210" y="51.77777777777778" width="369.6" height="28" fill="#4682B4" rx="3"/>
<text x="202" y="69.77777777777777" text-anchor="end" font-size="11" fill="#2C3E50">NTT Forward (phase 1+2)</text>
<text x="585.6" y="69.77777777777777" font-size="11" font-weight="bold" fill="#2C3E50">46.2%</text>
<rect x="210" y="81.55555555555556" width="119.19999999999999" height="28" fill="#36648B" rx="3"/>
<text x="202" y="99.55555555555556" text-anchor="end" font-size="11" fill="#2C3E50">Key-Switch Inner Product</text>
<text x="335.2" y="99.55555555555556" font-size="11" font-weight="bold" fill="#2C3E50">14.9%</text>
<rect x="210" y="111.33333333333334" width="97.6" height="28" fill="#5B9BD5" rx="3"/>
<text x="202" y="129.33333333333334" text-anchor="end" font-size="11" fill="#2C3E50">PRNG Sampling</text>
<text x="313.6" y="129.33333333333334" font-size="11" font-weight="bold" fill="#2C3E50">12.2%</text>
<rect x="210" y="141.11111111111111" width="51.2" height="28" fill="#8FAECC" rx="3"/>
<text x="202" y="159.11111111111111" text-anchor="end" font-size="11" fill="#2C3E50">ModUp Base Conv</text>
<text x="267.2" y="159.11111111111111" font-size="11" font-weight="bold" fill="#2C3E50">6.4%</text>
<rect x="210" y="170.88888888888889" width="43.2" height="28" fill="#B0C4DE" rx="3"/>
<text x="202" y="188.88888888888889" text-anchor="end" font-size="11" fill="#2C3E50">Multiply/Add RNS Poly</text>
<text x="259.2" y="188.88888888888889" font-size="11" font-weight="bold" fill="#2C3E50">5.4%</text>
<rect x="210" y="200.66666666666666" width="24.8" height="28" fill="#A2BECF" rx="3"/>
<text x="202" y="218.66666666666666" text-anchor="end" font-size="11" fill="#2C3E50">ModDown + Fuse</text>
<text x="240.8" y="218.66666666666666" font-size="11" font-weight="bold" fill="#2C3E50">3.1%</text>
<rect x="210" y="230.44444444444446" width="19.2" height="28" fill="#C1D5E4" rx="3"/>
<text x="202" y="248.44444444444446" text-anchor="end" font-size="11" fill="#2C3E50">FFT (encode/decode)</text>
<text x="235.2" y="248.44444444444446" font-size="11" font-weight="bold" fill="#2C3E50">2.4%</text>
<rect x="210" y="260.22222222222223" width="75.2" height="28" fill="#D6E4F0" rx="3"/>
<text x="202" y="278.22222222222223" text-anchor="end" font-size="11" fill="#2C3E50">Other</text>
<text x="291.2" y="278.22222222222223" font-size="11" font-weight="bold" fill="#2C3E50">9.4%</text>
<line x1="210" y1="50" x2="210" y2="290" stroke="#2C3E50" stroke-width="1"/>
</svg>