<svg xmlns="http://www.w3.org/2000/svg" width="450" height="280" font-family="Segoe UI, Arial, sans-serif">
<rect width="450" height="280" fill="#F5F8FC" rx="8"/>
<text x="225" y="30" text-anchor="middle" font-size="15" font-weight="bold" fill="#2C3E50">Per-GPU Compute Time (4-GPU, 12 BERT-base heads)</text>
<line x1="80" y1="230.0" x2="420" y2="230.0" stroke="#DCE6F0" stroke-width="1"/>
<text x="72" y="234.0" text-anchor="end" font-size="11" fill="#2C3E50">0</text>
<line x1="80" y1="197.27272727272728" x2="420" y2="197.27272727272728" stroke="#DCE6F0" stroke-width="1"/>
<text x="72" y="201.27272727272728" text-anchor="end" font-size="11" fill="#2C3E50">1000</text>
<line x1="80" y1="164.54545454545456" x2="420" y2="164.54545454545456" stroke="#DCE6F0" stroke-width="1"/>
<text x="72" y="168.54545454545456" text-anchor="end" font-size="11" fill="#2C3E50">2000</text>
<line x1="80" y1="131.8181818181818" x2="420" y2="131.8181818181818" stroke="#DCE6F0" stroke-width="1"/>
<text x="72" y="135.8181818181818" text-anchor="end" font-size="11" fill="#2C3E50">3000</text>
<line x1="80" y1="99.0909090909091" x2="420" y2="99.0909090909091" stroke="#DCE6F0" stroke-width="1"/>
<text x="72" y="103.0909090909091" text-anchor="end" font-size="11" fill="#2C3E50">4000</text>
<line x1="80" y1="66.36363636363637" x2="420" y2="66.36363636363637" stroke="#DCE6F0" stroke-width="1"/>
<text x="72" y="70.36363636363637" text-anchor="end" font-size="11" fill="#2C3E50">5000</text>
<rect x="100.0" y="82.07272727272729" width="60" height="147.9272727272727" fill="#4682B4" rx="3"/>
<text x="130.0" y="76.07272727272729" text-anchor="middle" font-size="11" font-weight="bold" fill="#2C3E50">4520ms</text>
<text x="130.0" y="248" text-anchor="middle" font-size="11" fill="#2C3E50">GPU 0</text>
<rect x="180.0" y="81.58181818181816" width="60" height="148.41818181818184" fill="#5B9BD5" rx="3"/>
<text x="210.0" y="75.58181818181816" text-anchor="middle" font-size="11" font-weight="bold" fill="#2C3E50">4535ms</text>
<text x="210.0" y="248" text-anchor="middle" font-size="11" fill="#2C3E50">GPU 1</text>
<rect x="260.0" y="82.4" width="60" height="147.6" fill="#B0C4DE" rx="3"/>
<text x="290.0" y="76.4" text-anchor="middle" font-size="11" font-weight="bold" fill="#2C3E50">4510ms</text>
<text x="290.0" y="248" text-anchor="middle" font-size="11" fill="#2C3E50">GPU 2</text>
<rect x="340.0" y="81.9090909090909" width="60" height="148.0909090909091" fill="#8FAECC" rx="3"/>
<text x="370.0" y="75.9090909090909" text-anchor="middle" font-size="11" font-weight="bold" fill="#2C3E50">4525ms</text>
<text x="370.0" y="248" text-anchor="middle" font-size="11" fill="#2C3E50">GPU 3</text>
<text x="225" y="270" text-anchor="middle" font-size="11" fill="#36648B">Max variance: 0.6% — balanced workload (3 heads/GPU)</text>
<line x1="80" y1="230" x2="420" y2="230" stroke="#2C3E50" stroke-width="1.5"/>
<line x1="80" y1="50" x2="80" y2="230" stroke="#2C3E50" stroke-width="1.5"/>
</svg>